<svg xmlns="http://www.w3.org/2000/svg" width="16" height="16"><path d="M11.014 1.99H4.931A2.694 2.694 0 002 4.93v6.08a3.047 3.047 0 00.83 2.21 3.1 3.1 0 002.156.77h6.028a3.007 3.007 0 002.156-.77 2.836 2.836 0 00.83-2.16V4.98a3.15 3.15 0 00-.774-2.16 2.973 2.973 0 00-2.212-.83zM16 11.3a4.444 4.444 0 01-4.709 4.69H4.71a4.716 4.716 0 01-3.382-1.26A4.515 4.515 0 010 11.3V4.69a4.465 4.465 0 014.71-4.7h6.641a4.666 4.666 0 013.381 1.33A4.566 4.566 0 0116 4.69v6.61zM8 9.99a2 2 0 10-2-2 2 2 0 002 2zm-.029 2a4 4 0 010-8 4.043 4.043 0 014.029 4 4 4 0 01-4.029 4zm4.029-7a1 1 0 111-1 .982.982 0 01-1 1z" fill="#868686" fill-rule="evenodd"/></svg>