<svg xmlns="http://www.w3.org/2000/svg" width="14" height="11.78"><path d="M14 1.4a5.545 5.545 0 01-1.646.46A2.925 2.925 0 0013.616.22a5.508 5.508 0 01-1.823.72A2.83 2.83 0 007.654.88a2.986 2.986 0 00-.834 2.09 3.141 3.141 0 00.074.68A8.053 8.053 0 01.974.55a3.027 3.027 0 00.889 3.96 2.72 2.72 0 01-1.3-.37v.04a2.944 2.944 0 002.306 2.91 2.713 2.713 0 01-1.3.05A2.892 2.892 0 004.251 9.2a5.612 5.612 0 01-3.566 1.27.862.862 0 01-.686-.04 7.954 7.954 0 004.4 1.34 8.12 8.12 0 005.816-2.48 8.452 8.452 0 002.357-5.97c0-.13 0-.25-.009-.38A6.008 6.008 0 0014 1.4z" fill="#868686" fill-rule="evenodd"/></svg>